# xmcd
#
# Track frame offsets: 
#        150
#        17783
#        25507
#        47163
#        59380
#        79161
#        89905
#        101282
#        117379
#        125491
#        143951
#        159434
#        171921
#        187250
#        200948
#        214317
#        245569
#
# Disc length: 4525 seconds
#
# Revision: 0
# Processed by: cddbd v1.5.2PL0 Copyright (c) Steve Scherf et al.
# Submitted via: ExactAudioCopy v0.99pb4
#
DISCID=0011ab11
DTITLE=Various Artist - What Can An Old Man Do... But Sing The Blues
DYEAR=2009
DGENRE=blues
TTITLE0=Neal Pattman - Going Down Slow
TTITLE1=Boo Hanks - Girls Crazy About Me
TTITLE2=John Dee Holeman - Mistreated Blues
TTITLE3=Dr. Burt - Clock On The Wall
TTITLE4=John Dee Holeman - Little Queenie - Reelin' and Rockin'
TTITLE5=Dr. Burt - Ain't That Loving You Baby
TTITLE6=Boo Hanks - Picking Low Cotton
TTITLE7=Neal Pattman - Catfish Blues
TTITLE8=Boo Hanks - Trouble
TTITLE9=John Dee Holeman - Early Letter Blues
TTITLE10=Dr. Burt - What Can An Old Man Do (But Sing The Blues)
TTITLE11=Neal Pattman - Neal's Testimony
TTITLE12=Neal Pattman - Prison Blues
TTITLE13=Boo Hanks - Restless Blues
TTITLE14=Dr. Burt - Come On In This House
TTITLE15=John Dee Holeman - Chapel Hill Boogie
TTITLE16=Video
EXTD=
EXTT0=
EXTT1=
EXTT2=
EXTT3=
EXTT4=
EXTT5=
EXTT6=
EXTT7=
EXTT8=
EXTT9=
EXTT10=
EXTT11=
EXTT12=
EXTT13=
EXTT14=
EXTT15=
EXTT16=
PLAYORDER=
